<svg xmlns="http://www.w3.org/2000/svg" viewBox="0 0 1621 1987">
<defs>
<clipPath id="main"><rect x="80" y="450" width="1461" height="860" rx="28"/></clipPath>
<clipPath id="detail1"><rect x="80" y="1340" width="467" height="340" rx="18"/></clipPath>
<clipPath id="detail2"><rect x="577" y="1340" width="467" height="340" rx="18"/></clipPath>
<clipPath id="detail3"><rect x="1074" y="1340" width="467" height="340" rx="18"/></clipPath>
</defs>
<rect width="1621" height="1987" fill="#f3f0e8"/><rect width="1621" height="36" fill="#d96b49"/>
<text x="80" y="145" font-family="Roboto" font-size="28" letter-spacing="6" fill="#686d61">VEHICLE COLLECTION</text>
<text x="1541" y="145" text-anchor="end" font-family="Roboto" font-size="30" fill="#686d61">NO. {{number}}</text>
<text data-max-width="1461" x="80" y="250" font-family="Roboto" font-size="48" font-weight="bold" fill="#292d27">{{title}}</text>
<text data-max-width="1461" x="80" y="360" font-family="Roboto" font-size="72" font-weight="bold" fill="#292d27">{{model}}</text>
<rect x="80" y="450" width="1461" height="860" rx="28" fill="#dce0d5"/>
<image x="80" y="450" width="1461" height="860" href="{{photo0}}" preserveAspectRatio="xMidYMid slice" clip-path="url(#main)"/>
<rect x="80" y="1340" width="467" height="340" rx="18" fill="#dce0d5"/>
<rect x="577" y="1340" width="467" height="340" rx="18" fill="#dce0d5"/>
<rect x="1074" y="1340" width="467" height="340" rx="18" fill="#dce0d5"/>
<image x="80" y="1340" width="467" height="340" href="{{photo1}}" preserveAspectRatio="xMidYMid slice" clip-path="url(#detail1)"/>
<image x="577" y="1340" width="467" height="340" href="{{photo2}}" preserveAspectRatio="xMidYMid slice" clip-path="url(#detail2)"/>
<image x="1074" y="1340" width="467" height="340" href="{{photo3}}" preserveAspectRatio="xMidYMid slice" clip-path="url(#detail3)"/>
<rect x="80" y="1740" width="1461" height="2" fill="#c9cec1"/>
<text data-max-width="1180" x="80" y="1830" font-family="Roboto" font-size="54" font-weight="bold" fill="#d96b49">{{price}}</text>
<text data-max-width="1180" x="80" y="1910" font-family="Roboto" font-size="26" fill="#686d61">{{color}}  ·  VIN {{vin}}</text>
<image x="1351" y="1780" width="190" height="150" href="{{logo}}" preserveAspectRatio="xMidYMid meet"/>
</svg>
